<svg width="185" height="102" viewBox="0 0 185 102" fill="none" xmlns="http://www.w3.org/2000/svg">
<g clip-path="url(#clip0_2_24)">
<g filter="url(#filter0_d_2_24)">
<path d="M35.6542 16.09V37H32.9242V27.52H22.2742V37H19.5442V16.09H22.2742V25.27H32.9242V16.09H35.6542ZM55.9157 28.15C55.9157 28.67 55.8857 29.22 55.8257 29.8H42.6857C42.7857 31.42 43.3357 32.69 44.3357 33.61C45.3557 34.51 46.5857 34.96 48.0257 34.96C49.2057 34.96 50.1857 34.69 50.9657 34.15C51.7657 33.59 52.3257 32.85 52.6457 31.93H55.5857C55.1457 33.51 54.2657 34.8 52.9457 35.8C51.6257 36.78 49.9857 37.27 48.0257 37.27C46.4657 37.27 45.0657 36.92 43.8257 36.22C42.6057 35.52 41.6457 34.53 40.9457 33.25C40.2457 31.95 39.8957 30.45 39.8957 28.75C39.8957 27.05 40.2357 25.56 40.9157 24.28C41.5957 23 42.5457 22.02 43.7657 21.34C45.0057 20.64 46.4257 20.29 48.0257 20.29C49.5857 20.29 50.9657 20.63 52.1657 21.31C53.3657 21.99 54.2857 22.93 54.9257 24.13C55.5857 25.31 55.9157 26.65 55.9157 28.15ZM53.0957 27.58C53.0957 26.54 52.8657 25.65 52.4057 24.91C51.9457 24.15 51.3157 23.58 50.5157 23.2C49.7357 22.8 48.8657 22.6 47.9057 22.6C46.5257 22.6 45.3457 23.04 44.3657 23.92C43.4057 24.8 42.8557 26.02 42.7157 27.58H53.0957ZM59.0992 28.72C59.0992 27.04 59.4392 25.57 60.1192 24.31C60.7992 23.03 61.7292 22.04 62.9092 21.34C64.1092 20.64 65.4392 20.29 66.8992 20.29C68.3392 20.29 69.5892 20.6 70.6492 21.22C71.7092 21.84 72.4992 22.62 73.0192 23.56V20.56H75.7792V37H73.0192V33.94C72.4792 34.9 71.6692 35.7 70.5892 36.34C69.5292 36.96 68.2892 37.27 66.8692 37.27C65.4092 37.27 64.0892 36.91 62.9092 36.19C61.7292 35.47 60.7992 34.46 60.1192 33.16C59.4392 31.86 59.0992 30.38 59.0992 28.72ZM73.0192 28.75C73.0192 27.51 72.7692 26.43 72.2692 25.51C71.7692 24.59 71.0892 23.89 70.2292 23.41C69.3892 22.91 68.4592 22.66 67.4392 22.66C66.4192 22.66 65.4892 22.9 64.6492 23.38C63.8092 23.86 63.1392 24.56 62.6392 25.48C62.1392 26.4 61.8892 27.48 61.8892 28.72C61.8892 29.98 62.1392 31.08 62.6392 32.02C63.1392 32.94 63.8092 33.65 64.6492 34.15C65.4892 34.63 66.4192 34.87 67.4392 34.87C68.4592 34.87 69.3892 34.63 70.2292 34.15C71.0892 33.65 71.7692 32.94 72.2692 32.02C72.7692 31.08 73.0192 29.99 73.0192 28.75ZM87.1126 34.48L92.2126 20.56H95.1226L88.6726 37H85.4926L79.0426 20.56H81.9826L87.1126 34.48ZM113.409 28.15C113.409 28.67 113.379 29.22 113.319 29.8H100.179C100.279 31.42 100.829 32.69 101.829 33.61C102.849 34.51 104.079 34.96 105.519 34.96C106.699 34.96 107.679 34.69 108.459 34.15C109.259 33.59 109.819 32.85 110.139 31.93H113.079C112.639 33.51 111.759 34.8 110.439 35.8C109.119 36.78 107.479 37.27 105.519 37.27C103.959 37.27 102.559 36.92 101.319 36.22C100.099 35.52 99.139 34.53 98.439 33.25C97.739 31.95 97.389 30.45 97.389 28.75C97.389 27.05 97.729 25.56 98.409 24.28C99.089 23 100.039 22.02 101.259 21.34C102.499 20.64 103.919 20.29 105.519 20.29C107.079 20.29 108.459 20.63 109.659 21.31C110.859 21.99 111.779 22.93 112.419 24.13C113.079 25.31 113.409 26.65 113.409 28.15ZM110.589 27.58C110.589 26.54 110.359 25.65 109.899 24.91C109.439 24.15 108.809 23.58 108.009 23.2C107.229 22.8 106.359 22.6 105.399 22.6C104.019 22.6 102.839 23.04 101.859 23.92C100.899 24.8 100.349 26.02 100.209 27.58H110.589ZM125.623 20.26C127.623 20.26 129.243 20.87 130.483 22.09C131.723 23.29 132.343 25.03 132.343 27.31V37H129.643V27.7C129.643 26.06 129.233 24.81 128.413 23.95C127.593 23.07 126.473 22.63 125.053 22.63C123.613 22.63 122.463 23.08 121.603 23.98C120.763 24.88 120.343 26.19 120.343 27.91V37H117.613V20.56H120.343V22.9C120.883 22.06 121.613 21.41 122.533 20.95C123.473 20.49 124.503 20.26 125.623 20.26ZM143.222 37.27C141.962 37.27 140.832 37.06 139.832 36.64C138.832 36.2 138.042 35.6 137.462 34.84C136.882 34.06 136.562 33.17 136.502 32.17H139.322C139.402 32.99 139.782 33.66 140.462 34.18C141.162 34.7 142.072 34.96 143.192 34.96C144.232 34.96 145.052 34.73 145.652 34.27C146.252 33.81 146.552 33.23 146.552 32.53C146.552 31.81 146.232 31.28 145.592 30.94C144.952 30.58 143.962 30.23 142.622 29.89C141.402 29.57 140.402 29.25 139.622 28.93C138.862 28.59 138.202 28.1 137.642 27.46C137.102 26.8 136.832 25.94 136.832 24.88C136.832 24.04 137.082 23.27 137.582 22.57C138.082 21.87 138.792 21.32 139.712 20.92C140.632 20.5 141.682 20.29 142.862 20.29C144.682 20.29 146.152 20.75 147.272 21.67C148.392 22.59 148.992 23.85 149.072 25.45H146.342C146.282 24.59 145.932 23.9 145.292 23.38C144.672 22.86 143.832 22.6 142.772 22.6C141.792 22.6 141.012 22.81 140.432 23.23C139.852 23.65 139.562 24.2 139.562 24.88C139.562 25.42 139.732 25.87 140.072 26.23C140.432 26.57 140.872 26.85 141.392 27.07C141.932 27.27 142.672 27.5 143.612 27.76C144.792 28.08 145.752 28.4 146.492 28.72C147.232 29.02 147.862 29.48 148.382 30.1C148.922 30.72 149.202 31.53 149.222 32.53C149.222 33.43 148.972 34.24 148.472 34.96C147.972 35.68 147.262 36.25 146.342 36.67C145.442 37.07 144.402 37.27 143.222 37.27ZM66.5167 67.35H57.3967L55.7167 72H52.8367L60.3967 51.21H63.5467L71.0767 72H68.1967L66.5167 67.35ZM65.7367 65.13L61.9567 54.57L58.1767 65.13H65.7367ZM82.9815 55.26C84.9815 55.26 86.6015 55.87 87.8415 57.09C89.0815 58.29 89.7015 60.03 89.7015 62.31V72H87.0015V62.7C87.0015 61.06 86.5915 59.81 85.7715 58.95C84.9515 58.07 83.8315 57.63 82.4115 57.63C80.9715 57.63 79.8215 58.08 78.9615 58.98C78.1215 59.88 77.7015 61.19 77.7015 62.91V72H74.9715V55.56H77.7015V57.9C78.2415 57.06 78.9715 56.41 79.8915 55.95C80.8315 55.49 81.8615 55.26 82.9815 55.26ZM96.171 52.89C95.651 52.89 95.211 52.71 94.851 52.35C94.491 51.99 94.311 51.55 94.311 51.03C94.311 50.51 94.491 50.07 94.851 49.71C95.211 49.35 95.651 49.17 96.171 49.17C96.671 49.17 97.091 49.35 97.431 49.71C97.791 50.07 97.971 50.51 97.971 51.03C97.971 51.55 97.791 51.99 97.431 52.35C97.091 52.71 96.671 52.89 96.171 52.89ZM97.491 55.56V72H94.761V55.56H97.491ZM122.514 55.26C123.794 55.26 124.934 55.53 125.934 56.07C126.934 56.59 127.724 57.38 128.304 58.44C128.884 59.5 129.174 60.79 129.174 62.31V72H126.474V62.7C126.474 61.06 126.064 59.81 125.244 58.95C124.444 58.07 123.354 57.63 121.974 57.63C120.554 57.63 119.424 58.09 118.584 59.01C117.744 59.91 117.324 61.22 117.324 62.94V72H114.624V62.7C114.624 61.06 114.214 59.81 113.394 58.95C112.594 58.07 111.504 57.63 110.124 57.63C108.704 57.63 107.574 58.09 106.734 59.01C105.894 59.91 105.474 61.22 105.474 62.94V72H102.744V55.56H105.474V57.93C106.014 57.07 106.734 56.41 107.634 55.95C108.554 55.49 109.564 55.26 110.664 55.26C112.044 55.26 113.264 55.57 114.324 56.19C115.384 56.81 116.174 57.72 116.694 58.92C117.154 57.76 117.914 56.86 118.974 56.22C120.034 55.58 121.214 55.26 122.514 55.26ZM149.252 63.15C149.252 63.67 149.222 64.22 149.162 64.8H136.022C136.122 66.42 136.672 67.69 137.672 68.61C138.692 69.51 139.922 69.96 141.362 69.96C142.542 69.96 143.522 69.69 144.302 69.15C145.102 68.59 145.662 67.85 145.982 66.93H148.922C148.482 68.51 147.602 69.8 146.282 70.8C144.962 71.78 143.322 72.27 141.362 72.27C139.802 72.27 138.402 71.92 137.162 71.22C135.942 70.52 134.982 69.53 134.282 68.25C133.582 66.95 133.232 65.45 133.232 63.75C133.232 62.05 133.572 60.56 134.252 59.28C134.932 58 135.882 57.02 137.102 56.34C138.342 55.64 139.762 55.29 141.362 55.29C142.922 55.29 144.302 55.63 145.502 56.31C146.702 56.99 147.622 57.93 148.262 59.13C148.922 60.31 149.252 61.65 149.252 63.15ZM146.432 62.58C146.432 61.54 146.202 60.65 145.742 59.91C145.282 59.15 144.652 58.58 143.852 58.2C143.072 57.8 142.202 57.6 141.242 57.6C139.862 57.6 138.682 58.04 137.702 58.92C136.742 59.8 136.192 61.02 136.052 62.58H146.432Z" fill="white"/>
</g>
<path d="M44.5042 56.5924L18.4175 70.7787C18.2562 70.2424 18.1667 69.6737 18.1667 69.0887V53.9112C18.1667 48.9062 24.1329 45.7862 28.9167 48.2887L36.155 52.0749L43.4112 55.8774C43.8054 56.0887 44.1817 56.3162 44.5042 56.5924V56.5924Z" fill="white"/>
<path opacity="0.4" d="M43.4094 67.1225L36.1532 70.925L28.9149 74.7113C25.4928 76.4988 21.4615 75.4263 19.4549 72.81L20.2074 72.4038L46.079 58.3313C47.8707 61.2563 46.9928 65.2538 43.4094 67.1225Z" fill="white"/>
</g>
<defs>
<filter id="filter0_d_2_24" x="-0.455811" y="-1.90991" width="169.708" height="96.1799" filterUnits="userSpaceOnUse" color-interpolation-filters="sRGB">
<feFlood flood-opacity="0" result="BackgroundImageFix"/>
<feColorMatrix in="SourceAlpha" type="matrix" values="0 0 0 0 0 0 0 0 0 0 0 0 0 0 0 0 0 0 127 0" result="hardAlpha"/>
<feOffset dy="2"/>
<feGaussianBlur stdDeviation="10"/>
<feComposite in2="hardAlpha" operator="out"/>
<feColorMatrix type="matrix" values="0 0 0 0 1 0 0 0 0 1 0 0 0 0 1 0 0 0 0.68 0"/>
<feBlend mode="normal" in2="BackgroundImageFix" result="effect1_dropShadow_2_24"/>
<feBlend mode="normal" in="SourceGraphic" in2="effect1_dropShadow_2_24" result="shape"/>
</filter>
<clipPath id="clip0_2_24">
<rect width="185" height="102" fill="white"/>
</clipPath>
</defs>
</svg>
